<svg width="410" height="410" viewBox="0 0 410 410" fill="none" xmlns="http://www.w3.org/2000/svg">
<path d="M399.691 298.333H304.637C301.153 298.333 298.328 301.158 298.328 304.642V398.691C298.328 402.175 301.153 405 304.637 405H399.691C403.175 405 406 402.175 406 398.691V304.642C406 301.158 403.175 298.333 399.691 298.333Z" fill="black"/>
<g clip-path="url(#clip0_2_2)">
<path d="M367.144 365.181C367.144 367.865 360.6 370.027 352.533 370.027C344.466 370.027 337.923 367.845 337.923 365.181C337.923 362.497 344.466 360.334 352.533 360.334C360.6 360.334 367.144 362.497 367.144 365.181Z" fill="#9EDCF2"/>
<path d="M367.144 365.181C367.144 367.865 360.6 370.027 352.533 370.027C344.466 370.027 337.923 367.845 337.923 365.181C337.923 362.497 344.466 360.334 352.533 360.334C360.6 360.334 367.144 362.497 367.144 365.181Z" fill="#7DBCE7"/>
<path d="M335.85 350.911L335.423 352.301C335.423 352.301 335.322 352.803 335.81 352.9C336.338 352.88 336.297 352.417 336.257 352.282L335.85 350.911Z" fill="#9EDCF2"/>
<path d="M378.299 345.06L378.34 344.886C374.052 344.075 369.663 344.056 367.001 344.172C367.428 342.685 367.57 340.947 367.57 339.035C367.57 336.274 366.473 334.073 364.725 332.412C365.03 331.466 365.437 329.361 364.319 326.677C364.319 326.677 362.328 326.079 357.796 328.956C356.028 328.531 354.139 328.319 352.249 328.319C350.176 328.319 348.083 328.57 346.112 329.072C341.438 326.04 339.386 326.658 339.386 326.658C338.045 329.844 338.878 332.219 339.122 332.798C337.537 334.42 336.582 336.487 336.582 339.016C336.582 340.928 336.805 342.646 337.374 344.133C334.692 344.037 330.465 344.075 326.32 344.867L326.361 345.041C330.506 344.249 334.773 344.23 337.435 344.326C337.557 344.635 337.699 344.944 337.842 345.234C335.2 345.311 330.709 345.639 326.401 346.798L326.462 346.972C330.811 345.813 335.342 345.504 337.964 345.427C339.549 348.208 342.637 350.023 348.164 350.583C347.372 351.085 346.579 351.934 346.254 353.383C345.177 353.865 341.804 355.062 339.772 351.741C339.772 351.741 338.634 349.772 336.46 349.617C336.46 349.617 334.347 349.579 336.318 350.872C336.318 350.872 337.72 351.509 338.695 353.885C338.695 353.885 339.975 357.94 346.092 356.627V360.778C346.092 360.778 345.97 362.265 344.527 362.748C344.527 362.748 343.674 363.308 344.588 363.617C344.588 363.617 348.55 363.926 348.55 360.836V356.279C348.55 356.279 348.388 354.464 349.323 353.846V361.338C349.323 361.338 349.262 363.134 348.286 363.81C348.286 363.81 347.636 364.91 349.058 364.621C349.058 364.621 351.781 364.254 351.903 361.222L351.964 353.634H352.614L352.675 361.222C352.797 364.235 355.52 364.621 355.52 364.621C356.943 364.93 356.292 363.81 356.292 363.81C355.317 363.134 355.256 361.338 355.256 361.338V353.904C356.191 354.599 356.028 356.279 356.028 356.279V360.836C356.028 363.926 359.991 363.617 359.991 363.617C360.905 363.308 360.052 362.748 360.052 362.748C358.629 362.246 358.487 360.778 358.487 360.778V354.792C358.487 352.456 357.451 351.22 356.435 350.583C362.328 350.023 365.152 348.227 366.453 345.408C369.033 345.466 373.687 345.775 378.116 346.972L378.177 346.798C373.768 345.62 369.155 345.311 366.534 345.234C366.656 344.944 366.757 344.655 366.859 344.346C369.582 344.249 373.991 344.249 378.299 345.06V345.06Z" fill="#111111"/>
<path d="M361.799 338.9C363.059 340.001 363.811 341.314 363.811 342.724C363.811 349.366 358.609 349.54 352.188 349.54C345.767 349.54 340.565 348.613 340.565 342.724C340.565 341.314 341.296 340.001 342.556 338.92C344.649 337.104 348.185 338.07 352.188 338.07C356.191 338.07 359.706 337.085 361.799 338.9V338.9Z" fill="#F5CCB3"/>
<path d="M348.327 343.071C348.327 344.906 347.25 346.373 345.909 346.373C344.568 346.373 343.491 344.886 343.491 343.071C343.491 341.237 344.568 339.769 345.909 339.769C347.25 339.75 348.327 341.237 348.327 343.071V343.071Z" fill="white"/>
<path d="M347.555 343.11C347.555 344.326 346.823 345.311 345.949 345.311C345.055 345.311 344.344 344.326 344.344 343.11C344.344 341.893 345.076 340.908 345.949 340.908C346.823 340.908 347.555 341.893 347.555 343.11Z" fill="#AF5C51"/>
<path d="M361.312 343.071C361.312 344.906 360.235 346.373 358.893 346.373C357.552 346.373 356.475 344.886 356.475 343.071C356.475 341.237 357.552 339.769 358.893 339.769C360.214 339.75 361.312 341.237 361.312 343.071V343.071Z" fill="white"/>
<path d="M360.519 343.11C360.519 344.326 359.788 345.311 358.914 345.311C358.02 345.311 357.308 344.326 357.308 343.11C357.308 341.893 358.04 340.908 358.914 340.908C359.808 340.908 360.519 341.893 360.519 343.11ZM352.838 346.006C352.838 346.315 352.574 346.586 352.228 346.586C351.903 346.586 351.619 346.334 351.619 346.006C351.619 345.678 351.883 345.427 352.228 345.427C352.554 345.427 352.838 345.678 352.838 346.006ZM350.826 347.454C350.786 347.358 350.847 347.261 350.948 347.223C351.05 347.184 351.151 347.242 351.192 347.339C351.355 347.763 351.761 348.034 352.228 348.034C352.696 348.034 353.102 347.744 353.265 347.339C353.305 347.242 353.407 347.184 353.509 347.223C353.61 347.261 353.671 347.358 353.631 347.454C353.427 348.014 352.858 348.401 352.228 348.401C351.598 348.401 351.03 348.014 350.826 347.454V347.454Z" fill="#AF5C51"/>
<path d="M337.395 350.081C337.395 350.235 337.212 350.351 336.968 350.351C336.744 350.351 336.541 350.235 336.541 350.081C336.541 349.926 336.724 349.81 336.968 349.81C337.212 349.81 337.395 349.926 337.395 350.081ZM338.573 350.698C338.573 350.853 338.39 350.969 338.146 350.969C337.923 350.969 337.72 350.853 337.72 350.698C337.72 350.544 337.903 350.428 338.146 350.428C338.39 350.428 338.573 350.544 338.573 350.698ZM339.284 351.509C339.284 351.664 339.101 351.78 338.858 351.78C338.634 351.78 338.431 351.664 338.431 351.509C338.431 351.355 338.614 351.239 338.858 351.239C339.101 351.22 339.284 351.355 339.284 351.509ZM339.935 352.436C339.935 352.591 339.752 352.707 339.508 352.707C339.284 352.707 339.081 352.591 339.081 352.436C339.081 352.282 339.264 352.166 339.508 352.166C339.752 352.147 339.935 352.282 339.935 352.436ZM340.646 353.286C340.646 353.44 340.463 353.556 340.219 353.556C339.996 353.556 339.792 353.44 339.792 353.286C339.792 353.132 339.975 353.016 340.219 353.016C340.463 353.016 340.646 353.132 340.646 353.286ZM341.621 354.039C341.621 354.194 341.438 354.309 341.194 354.309C340.971 354.309 340.768 354.194 340.768 354.039C340.768 353.885 340.951 353.769 341.194 353.769C341.438 353.749 341.621 353.885 341.621 354.039ZM342.983 354.522C342.983 354.676 342.8 354.792 342.556 354.792C342.332 354.792 342.129 354.676 342.129 354.522C342.129 354.367 342.312 354.251 342.556 354.251C342.8 354.251 342.983 354.367 342.983 354.522ZM344.344 354.522C344.344 354.676 344.161 354.792 343.917 354.792C343.694 354.792 343.491 354.676 343.491 354.522C343.491 354.367 343.674 354.251 343.917 354.251C344.161 354.251 344.344 354.367 344.344 354.522ZM345.726 354.309C345.726 354.464 345.543 354.58 345.299 354.58C345.076 354.58 344.872 354.464 344.872 354.309C344.872 354.155 345.055 354.039 345.299 354.039C345.523 354.039 345.726 354.155 345.726 354.309Z" fill="#C4E5D9"/>
</g>
<path d="M240.875 266.333H182.43C178.946 266.333 176.121 269.158 176.121 272.642V330.424C176.121 333.908 178.946 336.733 182.43 336.733H240.875C244.36 336.733 247.184 333.908 247.184 330.424V272.642C247.184 269.158 244.36 266.333 240.875 266.333Z" fill="black"/>
<g clip-path="url(#clip1_2_2)">
<path d="M228.42 300.189L213.37 285.284C212.504 284.426 211.098 284.426 210.231 285.284L207.106 288.379L211.07 292.306C211.991 291.998 213.048 292.204 213.782 292.932C214.52 293.664 214.727 294.719 214.409 295.634L218.229 299.419C219.154 299.103 220.22 299.307 220.958 300.04C221.99 301.061 221.99 302.717 220.958 303.739C219.926 304.761 218.255 304.761 217.222 303.739C216.446 302.97 216.254 301.841 216.647 300.894L213.084 297.365L213.084 306.651C213.342 306.778 213.578 306.945 213.782 307.146C214.814 308.168 214.814 309.824 213.782 310.847C212.75 311.868 211.078 311.868 210.047 310.847C209.015 309.824 209.015 308.168 210.047 307.146C210.294 306.901 210.588 306.707 210.912 306.575V297.202C210.588 297.071 210.294 296.877 210.047 296.631C209.265 295.858 209.077 294.722 209.478 293.771L205.57 289.9L195.25 300.12C194.383 300.979 194.383 302.372 195.25 303.23L210.301 318.136C211.167 318.994 212.572 318.994 213.44 318.136L228.42 303.3C229.287 302.441 229.287 301.048 228.42 300.189" fill="#DE4C36"/>
</g>
<g opacity="0.97">
<path d="M135.896 287.667H56.993C53.5085 287.667 50.6838 290.492 50.6838 293.976V372.025C50.6838 375.509 53.5085 378.334 56.993 378.334H135.896C139.38 378.334 142.205 375.509 142.205 372.025V293.976C142.205 290.492 139.38 287.667 135.896 287.667Z" fill="black"/>
<g clip-path="url(#clip2_2_2)">
<path d="M110.927 312.23H81.9613C80.9179 312.228 79.8844 312.425 78.9202 312.808C77.956 313.191 77.0799 313.752 76.3421 314.461C75.6043 315.17 75.0193 316.011 74.6206 316.937C74.2219 317.863 74.0173 318.855 74.0186 319.857V346.593C74.0173 347.595 74.2219 348.587 74.6206 349.513C75.0193 350.439 75.6043 351.281 76.3421 351.989C77.0799 352.698 77.956 353.259 78.9202 353.642C79.8844 354.025 80.9179 354.222 81.9613 354.22H110.927C111.971 354.222 113.004 354.025 113.968 353.642C114.933 353.259 115.809 352.698 116.547 351.989C117.284 351.281 117.869 350.439 118.268 349.513C118.667 348.587 118.871 347.595 118.87 346.593V319.857C118.871 318.855 118.667 317.863 118.268 316.937C117.869 316.011 117.284 315.17 116.547 314.461C115.809 313.752 114.933 313.191 113.968 312.808C113.004 312.425 111.971 312.228 110.927 312.23V312.23ZM116.979 345.893C116.984 346.749 116.813 347.597 116.476 348.389C116.139 349.181 115.642 349.901 115.014 350.508C114.385 351.115 113.638 351.597 112.816 351.926C111.993 352.255 111.111 352.424 110.22 352.425H82.6705C80.8725 352.422 79.1489 351.735 77.8776 350.514C76.6063 349.294 75.8909 347.638 75.8883 345.912V320.537C75.8909 318.81 76.6063 317.155 77.8776 315.934C79.1489 314.713 80.8725 314.026 82.6705 314.024H110.197C111.996 314.024 113.721 314.711 114.992 315.932C116.264 317.153 116.979 318.81 116.979 320.537V345.893ZM91.7512 331.879L96.986 341.532C97.0813 341.679 97.0239 341.819 96.8753 341.819H93.6195C93.4162 341.819 93.3209 341.77 93.2326 341.587C92.0371 339.218 90.8163 336.85 89.5675 334.304H89.5325C88.3834 336.755 87.198 339.19 85.9767 341.609C85.8912 341.749 85.7959 341.804 85.6418 341.804H82.5597C82.3705 341.804 82.3565 341.657 82.4518 341.552L87.5689 332.186L82.62 322.709C82.5023 322.562 82.62 322.456 82.7279 322.456H85.9403C86.1295 322.456 86.2038 322.493 86.2767 322.651C87.4693 325.039 88.635 327.439 89.7736 329.851H89.8086C90.8962 327.482 92.0946 325.022 93.2466 322.673C93.3419 322.526 93.3994 322.435 93.583 322.435H96.5894C96.7421 322.435 96.801 322.548 96.7071 322.688L91.7512 331.879ZM97.904 334.802C97.904 330.625 100.795 327.357 105.394 327.357C105.788 327.357 105.992 327.357 106.365 327.393V322.641C106.365 322.527 106.459 322.458 106.554 322.458H109.503C109.656 322.458 109.694 322.513 109.694 322.597V339.078C109.694 339.562 109.694 340.171 109.789 340.83C109.789 340.943 109.751 340.976 109.637 341.034C108.142 341.716 106.509 342.07 104.854 342.072C100.795 342.092 97.904 339.688 97.904 334.802V334.802ZM106.367 330.21C106.021 330.083 105.654 330.022 105.285 330.028C102.929 330.028 101.286 331.773 101.286 334.662C101.286 337.964 102.964 339.288 105.081 339.288C105.526 339.288 106.016 339.24 106.367 339.093V330.21Z" fill="#B32078"/>
</g>
</g>
<path d="M346.394 191.134H288.487C285.003 191.134 282.178 193.959 282.178 197.443V254.692C282.178 258.176 285.003 261.001 288.487 261.001H346.394C349.878 261.001 352.703 258.176 352.703 254.692V197.443C352.703 193.959 349.878 191.134 346.394 191.134Z" fill="black"/>
<path fill-rule="evenodd" clip-rule="evenodd" d="M305.072 209.648C302.657 209.648 300.871 211.729 300.951 213.985C301.027 216.153 300.928 218.96 300.21 221.25C299.489 223.546 298.272 225.001 296.283 225.188V227.296C298.272 227.483 299.489 228.937 300.21 231.234C300.928 233.523 301.027 236.331 300.951 238.498C300.871 240.754 302.657 242.835 305.072 242.835H329.812C332.226 242.835 334.013 240.755 333.933 238.498C333.856 236.331 333.956 233.523 334.673 231.234C335.394 228.937 336.608 227.483 338.598 227.296V225.188C336.609 225 335.394 223.546 334.673 221.25C333.955 218.961 333.856 216.153 333.933 213.985C334.013 211.729 332.226 209.648 329.812 209.648H305.071H305.072ZM324.971 230.077C324.971 233.184 322.617 235.068 318.711 235.068H312.061C311.871 235.068 311.689 234.994 311.554 234.861C311.42 234.729 311.344 234.549 311.344 234.362V218.122C311.344 217.934 311.42 217.755 311.554 217.622C311.689 217.49 311.871 217.416 312.061 217.416H318.673C321.93 217.416 324.068 219.153 324.068 221.819C324.068 223.691 322.63 225.367 320.798 225.661V225.758C323.292 226.028 324.971 227.728 324.971 230.077ZM317.986 219.654H314.194V224.926H317.388C319.856 224.926 321.217 223.948 321.217 222.198C321.217 220.559 320.047 219.654 317.986 219.654ZM314.194 227.018V232.829H318.125C320.695 232.829 322.057 231.814 322.057 229.905C322.057 227.997 320.657 227.018 317.96 227.018H314.194Z" fill="#F7F7F7"/>
<path d="M251.642 145.267H176.508C173.024 145.267 170.199 148.092 170.199 151.576V225.891C170.199 229.376 173.024 232.2 176.508 232.2H251.642C255.127 232.2 257.951 229.376 257.951 225.891V151.576C257.951 148.092 255.127 145.267 251.642 145.267Z" fill="black"/>
<g clip-path="url(#clip3_2_2)">
<path d="M205.415 210.9C210.077 210.9 213.86 207.2 213.86 202.642V194.383H205.415C200.753 194.383 196.97 198.083 196.97 202.642C196.97 207.2 200.753 210.9 205.415 210.9Z" fill="#0ACF83"/>
<path d="M196.97 186.125C196.97 181.566 200.753 177.867 205.415 177.867H213.86V194.383H205.415C200.753 194.383 196.97 190.684 196.97 186.125Z" fill="#A259FF"/>
<path d="M196.97 169.608C196.97 165.05 200.753 161.35 205.415 161.35H213.86V177.867H205.415C200.753 177.867 196.97 174.167 196.97 169.608Z" fill="#F24E1E"/>
<path d="M213.86 161.35H222.305C226.967 161.35 230.75 165.05 230.75 169.608C230.75 174.167 226.967 177.867 222.305 177.867H213.86V161.35Z" fill="#FF7262"/>
<path d="M230.75 186.125C230.75 190.684 226.967 194.383 222.305 194.383C217.643 194.383 213.86 190.684 213.86 186.125C213.86 181.566 217.643 177.867 222.305 177.867C226.967 177.867 230.75 181.566 230.75 186.125Z" fill="#1ABCFE"/>
</g>
<path d="M87.4433 179.4H12.3091C8.8247 179.4 6 182.225 6 185.709V260.024C6 263.509 8.8247 266.333 12.3091 266.333H87.4433C90.9277 266.333 93.7524 263.509 93.7524 260.024V185.709C93.7524 182.225 90.9277 179.4 87.4433 179.4Z" fill="black"/>
<path d="M34.95 194H63.05C69.0977 194 74 199.098 74 205.388V234.612C74 240.902 69.0977 246 63.05 246H34.95C28.9023 246 24 240.902 24 234.612V205.388C24 199.098 28.9023 194 34.95 194Z" fill="url(#paint0_linear_2_2)"/>
<path d="M40.0238 231.743L40.0285 231.744L38.319 234.824C37.6949 235.948 36.3129 236.333 35.232 235.684C34.1514 235.035 33.7809 233.598 34.4049 232.473L35.6643 230.205L35.7852 229.987C36.001 229.665 36.5336 229.108 37.599 229.213C37.599 229.213 40.1063 229.495 40.2877 230.851C40.2877 230.851 40.3123 231.297 40.0238 231.743V231.743ZM64.2705 223.878H58.9397C58.5766 223.852 58.4182 223.717 58.3557 223.639L58.3518 223.632L52.6453 213.353L52.6379 213.358L52.2957 212.847C51.7348 211.955 50.8441 214.237 50.8441 214.237C49.7807 216.779 50.9951 219.669 51.4184 220.543L59.3445 234.821C59.9684 235.944 61.3504 236.33 62.4315 235.681C63.5121 235.032 63.8826 233.594 63.2584 232.47L61.2766 228.9C61.2381 228.814 61.1713 228.579 61.5777 228.578H64.2705C65.5186 228.578 66.5303 227.526 66.5303 226.228C66.5303 224.93 65.5186 223.877 64.2705 223.877V223.878ZM53.9162 227.072C53.9162 227.072 54.2008 228.578 53.0998 228.578H33.393C32.1449 228.578 31.1332 227.526 31.1332 226.228C31.1332 224.93 32.1449 223.877 33.393 223.877H38.4594C39.2773 223.828 39.4711 223.337 39.4711 223.337L39.4758 223.34L46.0891 211.427L46.0871 211.426C46.2076 211.196 46.1072 210.979 46.0899 210.944L43.9057 207.01C43.2816 205.886 43.652 204.449 44.7328 203.8C45.8137 203.151 47.1957 203.536 47.8197 204.66L48.8326 206.484L49.8438 204.663C50.4678 203.539 51.8498 203.154 52.9307 203.803C54.0115 204.452 54.3818 205.889 53.7578 207.013L44.5551 223.59C44.5149 223.691 44.5025 223.85 44.802 223.877H50.3027L50.3039 223.933C50.3039 223.933 53.4832 223.985 53.9162 227.072Z" fill="white"/>
<path d="M367.928 51.9336H304.099C300.615 51.9336 297.79 54.7583 297.79 58.2427V121.358C297.79 124.842 300.615 127.667 304.099 127.667H367.928C371.412 127.667 374.237 124.842 374.237 121.358V58.2427C374.237 54.7583 371.412 51.9336 367.928 51.9336Z" fill="black"/>
<path d="M320.7 101.9L320.955 101.545L332.985 78.7235L333.01 78.482L327.708 68.522C327.611 68.3399 327.459 68.1929 327.274 68.1018C327.089 68.0107 326.879 67.9802 326.676 68.0145C326.472 68.0489 326.285 68.1463 326.14 68.2931C325.995 68.4399 325.899 68.6286 325.867 68.8325L320.7 101.9Z" fill="#FFC24A"/>
<path d="M320.85 101.63L321.042 101.255L332.948 78.671L327.658 68.672C327.571 68.4981 327.43 68.3572 327.256 68.2703C327.082 68.1834 326.884 68.1552 326.693 68.19C326.502 68.2248 326.327 68.3207 326.194 68.4633C326.062 68.6059 325.979 68.7875 325.959 68.981L320.85 101.63Z" fill="#FFA712"/>
<path d="M336.876 86.015L340.824 81.965L336.874 74.4335C336.788 74.2714 336.658 74.1359 336.5 74.0415C336.343 73.947 336.162 73.8972 335.978 73.8972C335.794 73.8972 335.614 73.947 335.456 74.0415C335.298 74.1359 335.169 74.2714 335.082 74.4335L332.971 78.4565V78.8L336.876 86.015Z" fill="#F4BD62"/>
<path d="M336.805 85.85L340.644 81.92L336.805 74.6C336.743 74.4416 336.635 74.3047 336.496 74.2058C336.358 74.107 336.193 74.0504 336.023 74.043C335.853 74.0355 335.684 74.0775 335.537 74.1638C335.39 74.2502 335.271 74.3771 335.194 74.5295L333.073 78.623L333.01 78.8315L336.805 85.85Z" fill="#FFA50E"/>
<path d="M320.703 101.901L320.819 101.785L321.237 101.615L336.627 86.282L336.822 85.751L332.984 78.434L320.703 101.901V101.901Z" fill="#F6820C"/>
<path d="M337.368 109.634L351.3 101.865L347.319 77.369C347.29 77.1963 347.215 77.0348 347.101 76.9023C346.986 76.7697 346.838 76.6712 346.671 76.6176C346.504 76.564 346.326 76.5573 346.156 76.5983C345.986 76.6393 345.83 76.7264 345.706 76.85L320.7 101.9L334.549 109.632C334.98 109.873 335.465 109.999 335.958 109.999C336.451 109.999 336.936 109.873 337.366 109.632" fill="#FDE068"/>
<path d="M351.172 101.801L347.224 77.489C347.218 77.3238 347.162 77.1644 347.064 77.031C346.967 76.8976 346.832 76.7961 346.676 76.7394C346.521 76.6827 346.352 76.6734 346.192 76.7125C346.031 76.7517 345.886 76.8377 345.774 76.9595L320.85 101.853L334.546 109.503C334.974 109.742 335.455 109.867 335.944 109.867C336.433 109.867 336.914 109.742 337.341 109.503L351.172 101.801Z" fill="#FCCA3F"/>
<path d="M337.368 109.4C336.937 109.64 336.453 109.766 335.959 109.766C335.466 109.766 334.982 109.64 334.551 109.4L320.814 101.783L320.7 101.9L334.549 109.633C334.98 109.873 335.465 109.999 335.958 109.999C336.451 109.999 336.936 109.873 337.366 109.633L351.3 101.866L351.265 101.656L337.368 109.4Z" fill="#EEAB37"/>
<path d="M243.568 5H148.514C145.03 5 142.205 7.8247 142.205 11.3091V105.358C142.205 108.842 145.03 111.667 148.514 111.667H243.568C247.052 111.667 249.877 108.842 249.877 105.358V11.3091C249.877 7.8247 247.052 5 243.568 5Z" fill="black"/>
<path d="M203.332 27.0022C203.332 27.0022 216.653 34.8546 220.14 47.329C223.281 58.5972 220.765 63.9749 220.765 63.9749C222.372 65.7798 223.638 67.8778 224.498 70.1614C225.362 71.6286 225.87 73.2892 225.978 75.0022C226.086 76.7151 225.792 78.4296 225.119 80C225.119 80 224.905 75.4044 218.263 74.4521C212.175 73.5683 209.961 79.6796 198.335 79.3836C191.893 79.257 185.578 77.5075 179.942 74.2876C174.306 71.0677 169.52 66.4752 166 60.9105C171.681 64.1053 179.122 69.0655 188.39 68.3032C197.658 67.541 199.592 64.6046 199.592 64.6046C189.175 56.1049 179.955 46.1534 172.195 35.0357C179.48 41.3216 197.527 53.8314 197.107 53.5133C190.506 46.8625 184.466 39.644 179.054 31.9359C179.054 31.9359 206.13 54.8897 208.309 54.7439C209.205 52.8416 213.836 42.9941 203.329 27L203.332 27.0022Z" fill="url(#paint1_linear_2_2)"/>
<path d="M119.745 71.1333H48.3792C44.8948 71.1333 42.0701 73.958 42.0701 77.4425V148.024C42.0701 151.509 44.8948 154.333 48.3792 154.333H119.745C123.229 154.333 126.054 151.509 126.054 148.024V77.4425C126.054 73.958 123.229 71.1333 119.745 71.1333Z" fill="black"/>
<g clip-path="url(#clip4_2_2)">
<path d="M91.698 93.901L83.9118 89.44L75.7863 94.4163L83.6811 98.7167L91.698 93.901ZM95.4215 95.8219L87.3807 100.644L96.494 105.838V119.559L84.2037 126.446L72.056 119.559V108.85L63.91 104.861V124.244L83.9118 135.957L104.64 124.331V101.073L95.4215 95.8219Z" fill="#2396F3"/>
</g>
<defs>
<linearGradient id="paint0_linear_2_2" x1="49" y1="194" x2="49" y2="246" gradientUnits="userSpaceOnUse">
<stop stop-color="#17C9FB"/>
<stop offset="1" stop-color="#1A74E8"/>
</linearGradient>
<linearGradient id="paint1_linear_2_2" x1="196.942" y1="48.2128" x2="195.738" y2="80.0239" gradientUnits="userSpaceOnUse">
<stop stop-color="#F88535"/>
<stop offset="1" stop-color="#FD2221"/>
</linearGradient>
<clipPath id="clip0_2_2">
<rect width="52.02" height="50.07" fill="white" transform="translate(326.32 326.6)"/>
</clipPath>
<clipPath id="clip1_2_2">
<rect width="34.47" height="34.14" fill="white" transform="translate(194.6 284.64)"/>
</clipPath>
<clipPath id="clip2_2_2">
<rect width="44.85" height="43.07" fill="white" transform="translate(74.02 311.69)"/>
</clipPath>
<clipPath id="clip3_2_2">
<rect width="33.78" height="49.55" fill="white" transform="translate(196.97 161.35)"/>
</clipPath>
<clipPath id="clip4_2_2">
<rect width="40.73" height="46.59" fill="white" transform="translate(63.91 89.44)"/>
</clipPath>
</defs>
</svg>
