<svg width="400" height="400" viewBox="0 0 400 400" fill="none" xmlns="http://www.w3.org/2000/svg">
<path d="M393.691 293.333H298.637C295.153 293.333 292.328 296.158 292.328 299.642V393.691C292.328 397.175 295.153 400 298.637 400H393.691C397.175 400 400 397.175 400 393.691V299.642C400 296.158 397.175 293.333 393.691 293.333Z" fill="black"/>
<g clip-path="url(#clip0_2_2)">
<path d="M361.144 360.181C361.144 362.865 354.6 365.027 346.533 365.027C338.466 365.027 331.923 362.845 331.923 360.181C331.923 357.497 338.466 355.334 346.533 355.334C354.6 355.334 361.144 357.497 361.144 360.181Z" fill="#9EDCF2"/>
<path d="M361.144 360.181C361.144 362.865 354.6 365.027 346.533 365.027C338.466 365.027 331.923 362.845 331.923 360.181C331.923 357.497 338.466 355.334 346.533 355.334C354.6 355.334 361.144 357.497 361.144 360.181Z" fill="#7DBCE7"/>
<path d="M329.85 345.911L329.423 347.301C329.423 347.301 329.322 347.803 329.81 347.9C330.338 347.88 330.297 347.417 330.257 347.282L329.85 345.911Z" fill="#9EDCF2"/>
<path d="M372.299 340.06L372.34 339.886C368.052 339.075 363.663 339.056 361.001 339.172C361.428 337.685 361.57 335.947 361.57 334.035C361.57 331.274 360.473 329.073 358.725 327.412C359.03 326.466 359.437 324.361 358.319 321.677C358.319 321.677 356.328 321.079 351.796 323.956C350.028 323.531 348.139 323.319 346.249 323.319C344.176 323.319 342.083 323.57 340.112 324.072C335.438 321.04 333.386 321.658 333.386 321.658C332.045 324.844 332.878 327.219 333.122 327.798C331.537 329.42 330.582 331.487 330.582 334.016C330.582 335.928 330.805 337.646 331.374 339.133C328.692 339.037 324.465 339.075 320.32 339.867L320.361 340.041C324.506 339.249 328.773 339.23 331.435 339.326C331.557 339.635 331.699 339.944 331.842 340.234C329.2 340.311 324.709 340.639 320.401 341.798L320.462 341.972C324.811 340.813 329.342 340.504 331.964 340.427C333.549 343.208 336.637 345.023 342.164 345.583C341.372 346.085 340.579 346.934 340.254 348.383C339.177 348.865 335.804 350.062 333.772 346.741C333.772 346.741 332.634 344.772 330.46 344.617C330.46 344.617 328.347 344.579 330.318 345.872C330.318 345.872 331.72 346.509 332.695 348.885C332.695 348.885 333.975 352.94 340.092 351.627V355.778C340.092 355.778 339.97 357.265 338.527 357.748C338.527 357.748 337.674 358.308 338.588 358.617C338.588 358.617 342.55 358.926 342.55 355.836V351.279C342.55 351.279 342.388 349.464 343.323 348.846V356.338C343.323 356.338 343.262 358.134 342.286 358.81C342.286 358.81 341.636 359.91 343.058 359.621C343.058 359.621 345.781 359.254 345.903 356.222L345.964 348.634H346.614L346.675 356.222C346.797 359.235 349.52 359.621 349.52 359.621C350.943 359.93 350.292 358.81 350.292 358.81C349.317 358.134 349.256 356.338 349.256 356.338V348.904C350.191 349.599 350.028 351.279 350.028 351.279V355.836C350.028 358.926 353.991 358.617 353.991 358.617C354.905 358.308 354.052 357.748 354.052 357.748C352.629 357.246 352.487 355.778 352.487 355.778V349.792C352.487 347.456 351.451 346.22 350.435 345.583C356.328 345.023 359.152 343.227 360.453 340.408C363.033 340.466 367.687 340.775 372.116 341.972L372.177 341.798C367.768 340.62 363.155 340.311 360.534 340.234C360.656 339.944 360.757 339.655 360.859 339.346C363.582 339.249 367.991 339.249 372.299 340.06V340.06Z" fill="#111111"/>
<path d="M355.799 333.9C357.059 335.001 357.811 336.314 357.811 337.724C357.811 344.366 352.609 344.54 346.188 344.54C339.767 344.54 334.565 343.613 334.565 337.724C334.565 336.314 335.296 335.001 336.556 333.92C338.649 332.104 342.185 333.07 346.188 333.07C350.191 333.07 353.706 332.085 355.799 333.9V333.9Z" fill="#F5CCB3"/>
<path d="M342.327 338.071C342.327 339.906 341.25 341.373 339.909 341.373C338.568 341.373 337.491 339.886 337.491 338.071C337.491 336.237 338.568 334.769 339.909 334.769C341.25 334.75 342.327 336.237 342.327 338.071V338.071Z" fill="white"/>
<path d="M341.555 338.11C341.555 339.326 340.823 340.311 339.949 340.311C339.055 340.311 338.344 339.326 338.344 338.11C338.344 336.893 339.076 335.908 339.949 335.908C340.823 335.908 341.555 336.893 341.555 338.11Z" fill="#AF5C51"/>
<path d="M355.312 338.071C355.312 339.906 354.235 341.373 352.893 341.373C351.552 341.373 350.475 339.886 350.475 338.071C350.475 336.237 351.552 334.769 352.893 334.769C354.214 334.75 355.312 336.237 355.312 338.071V338.071Z" fill="white"/>
<path d="M354.519 338.11C354.519 339.326 353.788 340.311 352.914 340.311C352.02 340.311 351.308 339.326 351.308 338.11C351.308 336.893 352.04 335.908 352.914 335.908C353.808 335.908 354.519 336.893 354.519 338.11ZM346.838 341.006C346.838 341.315 346.574 341.586 346.228 341.586C345.903 341.586 345.619 341.334 345.619 341.006C345.619 340.678 345.883 340.427 346.228 340.427C346.554 340.427 346.838 340.678 346.838 341.006ZM344.826 342.454C344.786 342.358 344.847 342.261 344.948 342.223C345.05 342.184 345.151 342.242 345.192 342.339C345.355 342.763 345.761 343.034 346.228 343.034C346.696 343.034 347.102 342.744 347.265 342.339C347.305 342.242 347.407 342.184 347.509 342.223C347.61 342.261 347.671 342.358 347.631 342.454C347.427 343.014 346.858 343.401 346.228 343.401C345.598 343.401 345.03 343.014 344.826 342.454V342.454Z" fill="#AF5C51"/>
<path d="M331.395 345.081C331.395 345.235 331.212 345.351 330.968 345.351C330.744 345.351 330.541 345.235 330.541 345.081C330.541 344.926 330.724 344.81 330.968 344.81C331.212 344.81 331.395 344.926 331.395 345.081ZM332.573 345.698C332.573 345.853 332.39 345.969 332.146 345.969C331.923 345.969 331.72 345.853 331.72 345.698C331.72 345.544 331.903 345.428 332.146 345.428C332.39 345.428 332.573 345.544 332.573 345.698ZM333.284 346.509C333.284 346.664 333.101 346.78 332.858 346.78C332.634 346.78 332.431 346.664 332.431 346.509C332.431 346.355 332.614 346.239 332.858 346.239C333.101 346.22 333.284 346.355 333.284 346.509ZM333.935 347.436C333.935 347.591 333.752 347.707 333.508 347.707C333.284 347.707 333.081 347.591 333.081 347.436C333.081 347.282 333.264 347.166 333.508 347.166C333.752 347.147 333.935 347.282 333.935 347.436ZM334.646 348.286C334.646 348.44 334.463 348.556 334.219 348.556C333.996 348.556 333.792 348.44 333.792 348.286C333.792 348.132 333.975 348.016 334.219 348.016C334.463 348.016 334.646 348.132 334.646 348.286ZM335.621 349.039C335.621 349.194 335.438 349.309 335.194 349.309C334.971 349.309 334.768 349.194 334.768 349.039C334.768 348.885 334.951 348.769 335.194 348.769C335.438 348.749 335.621 348.885 335.621 349.039ZM336.983 349.522C336.983 349.676 336.8 349.792 336.556 349.792C336.332 349.792 336.129 349.676 336.129 349.522C336.129 349.367 336.312 349.251 336.556 349.251C336.8 349.251 336.983 349.367 336.983 349.522ZM338.344 349.522C338.344 349.676 338.161 349.792 337.917 349.792C337.694 349.792 337.491 349.676 337.491 349.522C337.491 349.367 337.674 349.251 337.917 349.251C338.161 349.251 338.344 349.367 338.344 349.522ZM339.726 349.309C339.726 349.464 339.543 349.58 339.299 349.58C339.076 349.58 338.872 349.464 338.872 349.309C338.872 349.155 339.055 349.039 339.299 349.039C339.523 349.039 339.726 349.155 339.726 349.309Z" fill="#C4E5D9"/>
</g>
<path d="M234.875 261.333H176.43C172.946 261.333 170.121 264.158 170.121 267.642V325.424C170.121 328.908 172.946 331.733 176.43 331.733H234.875C238.36 331.733 241.184 328.908 241.184 325.424V267.642C241.184 264.158 238.36 261.333 234.875 261.333Z" fill="black"/>
<g clip-path="url(#clip1_2_2)">
<path d="M222.42 295.189L207.37 280.284C206.504 279.426 205.098 279.426 204.231 280.284L201.106 283.379L205.07 287.306C205.991 286.998 207.048 287.204 207.782 287.932C208.52 288.664 208.727 289.719 208.409 290.634L212.229 294.419C213.154 294.103 214.22 294.307 214.958 295.04C215.99 296.061 215.99 297.717 214.958 298.739C213.926 299.761 212.255 299.761 211.222 298.739C210.446 297.97 210.254 296.841 210.647 295.894L207.084 292.365L207.084 301.651C207.342 301.778 207.578 301.945 207.782 302.146C208.814 303.168 208.814 304.824 207.782 305.847C206.75 306.868 205.078 306.868 204.047 305.847C203.015 304.824 203.015 303.168 204.047 302.146C204.294 301.901 204.588 301.707 204.912 301.575V292.202C204.588 292.071 204.294 291.877 204.047 291.631C203.265 290.858 203.077 289.722 203.478 288.771L199.57 284.9L189.25 295.12C188.383 295.979 188.383 297.372 189.25 298.23L204.301 313.136C205.167 313.994 206.572 313.994 207.44 313.136L222.42 298.3C223.287 297.441 223.287 296.048 222.42 295.189" fill="#DE4C36"/>
</g>
<g opacity="0.97">
<path d="M129.896 282.667H50.993C47.5085 282.667 44.6838 285.492 44.6838 288.976V367.025C44.6838 370.509 47.5085 373.334 50.993 373.334H129.896C133.38 373.334 136.205 370.509 136.205 367.025V288.976C136.205 285.492 133.38 282.667 129.896 282.667Z" fill="black"/>
<g clip-path="url(#clip2_2_2)">
<path d="M104.927 307.23H75.9613C74.9179 307.228 73.8844 307.425 72.9202 307.808C71.956 308.191 71.0799 308.752 70.3421 309.461C69.6043 310.17 69.0193 311.011 68.6206 311.937C68.2219 312.863 68.0173 313.855 68.0186 314.857V341.593C68.0173 342.595 68.2219 343.587 68.6206 344.513C69.0193 345.439 69.6043 346.281 70.3421 346.989C71.0799 347.698 71.956 348.259 72.9202 348.642C73.8844 349.025 74.9179 349.222 75.9613 349.22H104.927C105.971 349.222 107.004 349.025 107.968 348.642C108.933 348.259 109.809 347.698 110.547 346.989C111.284 346.281 111.869 345.439 112.268 344.513C112.667 343.587 112.871 342.595 112.87 341.593V314.857C112.871 313.855 112.667 312.863 112.268 311.937C111.869 311.011 111.284 310.17 110.547 309.461C109.809 308.752 108.933 308.191 107.968 307.808C107.004 307.425 105.971 307.228 104.927 307.23V307.23ZM110.979 340.893C110.984 341.749 110.813 342.597 110.476 343.389C110.139 344.181 109.642 344.901 109.014 345.508C108.385 346.115 107.638 346.597 106.816 346.926C105.993 347.255 105.111 347.424 104.22 347.425H76.6705C74.8725 347.422 73.1489 346.735 71.8776 345.514C70.6063 344.294 69.8909 342.638 69.8883 340.912V315.537C69.8909 313.81 70.6063 312.155 71.8776 310.934C73.1489 309.713 74.8725 309.026 76.6705 309.024H104.197C105.996 309.024 107.721 309.711 108.992 310.932C110.264 312.153 110.979 313.81 110.979 315.537V340.893ZM85.7512 326.879L90.986 336.532C91.0813 336.679 91.0239 336.819 90.8753 336.819H87.6195C87.4162 336.819 87.3209 336.77 87.2326 336.587C86.0371 334.218 84.8163 331.85 83.5675 329.304H83.5325C82.3834 331.755 81.198 334.19 79.9767 336.609C79.8912 336.749 79.7959 336.804 79.6418 336.804H76.5597C76.3705 336.804 76.3565 336.657 76.4518 336.552L81.5689 327.186L76.62 317.709C76.5023 317.562 76.62 317.456 76.7279 317.456H79.9403C80.1295 317.456 80.2038 317.493 80.2767 317.651C81.4693 320.039 82.635 322.439 83.7736 324.851H83.8086C84.8962 322.482 86.0946 320.022 87.2466 317.673C87.3419 317.526 87.3994 317.435 87.583 317.435H90.5894C90.7421 317.435 90.801 317.548 90.7071 317.688L85.7512 326.879ZM91.904 329.802C91.904 325.625 94.7955 322.357 99.394 322.357C99.7878 322.357 99.9925 322.357 100.365 322.393V317.641C100.365 317.527 100.459 317.458 100.554 317.458H103.503C103.656 317.458 103.694 317.513 103.694 317.597V334.078C103.694 334.562 103.694 335.171 103.789 335.83C103.789 335.943 103.751 335.976 103.637 336.034C102.142 336.716 100.509 337.07 98.8544 337.072C94.7955 337.092 91.904 334.688 91.904 329.802V329.802ZM100.367 325.21C100.021 325.083 99.6541 325.022 99.2847 325.028C96.9286 325.028 95.286 326.773 95.286 329.662C95.286 332.964 96.9637 334.288 99.0814 334.288C99.5257 334.288 100.016 334.24 100.367 334.093V325.21Z" fill="#B32078"/>
</g>
</g>
<path d="M340.394 186.134H282.487C279.003 186.134 276.178 188.959 276.178 192.443V249.692C276.178 253.176 279.003 256.001 282.487 256.001H340.394C343.878 256.001 346.703 253.176 346.703 249.692V192.443C346.703 188.959 343.878 186.134 340.394 186.134Z" fill="black"/>
<g clip-path="url(#clip3_2_2)">
<path d="M326.453 207.556C327.3 207.208 327.904 207.094 328.509 207.208C329.477 207.441 329.961 208.133 330.324 208.481C330.688 209.174 332.018 209.867 332.623 209.984C333.107 210.098 333.954 208.828 334.56 207.672C335.164 206.63 335.528 205.243 335.406 204.895C335.286 204.55 333.591 203.856 333.229 203.856C332.985 203.856 332.501 204.087 331.654 203.971C330.81 203.856 329.961 202.932 329.479 202.237C328.629 201.081 327.42 200.388 326.331 199.809C325.121 199.23 323.79 198.884 322.459 198.653C320.524 198.189 318.587 197.843 316.652 198.073C315.564 198.187 314.233 198.304 313.264 198.651C313.142 198.651 312.9 198.997 313.142 198.997C313.384 198.997 314.231 199.114 314.231 199.114C314.231 199.114 313.144 199.345 313.144 199.576C313.144 199.809 313.264 199.809 313.386 199.809C313.506 199.809 316.168 199.692 317.258 199.809C318.467 200.038 319.798 200.615 320.646 202.004C322.097 204.548 321.491 206.976 321.129 207.785C319.314 211.602 304.914 235.072 304.189 236.69C303.463 238.308 303.221 239.349 305.278 240.39C307.335 241.431 308.424 240.967 309.028 240.274C309.756 239.349 322.217 209.52 326.453 207.554V207.556ZM319.676 223.163H322.581C324.516 223.163 324.879 224.09 324.879 224.435C325.001 225.36 324.516 226.517 322.581 226.517H320.766L322.217 228.828C323.064 230.217 322.701 230.91 322.217 231.373C321.491 232.066 319.918 232.066 319.073 230.563L317.378 227.789C316.168 230.333 314.959 233.107 313.506 236.345H321.008C324.638 236.345 327.664 233.455 327.664 229.984V209.754C327.542 209.521 327.3 209.638 327.178 209.754C326.453 210.562 324.396 213.338 319.678 223.165L319.676 223.163ZM301.284 237.5H300.681C299.647 237.502 298.624 237.309 297.668 236.933C296.713 236.556 295.845 236.002 295.115 235.304C294.384 234.606 293.804 233.777 293.41 232.864C293.015 231.951 292.813 230.973 292.815 229.986V210.561C292.813 209.573 293.015 208.595 293.409 207.682C293.804 206.769 294.383 205.94 295.114 205.241C295.845 204.543 296.713 203.989 297.668 203.612C298.623 203.235 299.647 203.042 300.681 203.045H318.225C317.861 202.697 316.41 202.12 314.959 202.235C314.353 202.235 313.144 202.468 312.416 202.004C311.691 201.427 311.813 201.079 310.723 201.079H299.955C298.778 201.076 297.612 201.296 296.525 201.725C295.437 202.154 294.448 202.784 293.616 203.579C292.784 204.374 292.125 205.319 291.676 206.358C291.227 207.398 290.997 208.512 291 209.636V230.681C291 235.422 294.994 239.236 299.349 239.12C300.559 239.12 300.923 238.195 301.284 237.502V237.5ZM328.993 210.446V229.986C328.995 230.973 328.793 231.951 328.399 232.864C328.004 233.776 327.425 234.605 326.694 235.303C325.964 236.002 325.096 236.555 324.141 236.932C323.186 237.309 322.163 237.502 321.129 237.5H313.022C313.022 237.5 312.296 239.351 314.595 239.351H321.855C323.032 239.354 324.197 239.134 325.285 238.705C326.372 238.276 327.361 237.645 328.193 236.85C329.025 236.055 329.684 235.111 330.133 234.071C330.582 233.032 330.811 231.918 330.808 230.794V213.798C330.93 212.18 329.477 211.139 328.993 210.446V210.446ZM294.146 210.561V229.982C294.146 233.453 297.171 236.343 300.803 236.343H301.89C301.89 236.226 303.341 233.799 306.488 228.71C306.851 228.019 307.335 227.325 307.819 226.515H298.988C297.898 226.515 297.293 225.822 297.171 225.243C296.929 224.319 297.534 223.161 298.866 223.161H303.341L309.03 213.682C309.03 213.682 307.699 211.37 307.335 210.792C306.851 209.982 307.093 209.172 307.579 208.71C308.303 208.016 309.514 207.671 310.723 209.52L311.207 210.213L311.691 209.52C312.778 208.015 313.506 208.131 314.109 208.248C315.079 208.479 315.684 209.52 314.837 211.138L307.335 223.161H309.876C310.723 221.775 311.571 220.388 312.416 218.885C312.296 218.306 312.174 217.613 312.296 217.034C312.416 216.109 312.902 215.3 313.506 214.606L314.231 215.762C316.532 211.946 318.225 208.71 318.709 207.438C318.953 206.744 319.314 205.356 318.953 204.2H300.803C299.928 204.198 299.061 204.361 298.252 204.68C297.444 204.998 296.709 205.467 296.09 206.058C295.472 206.649 294.982 207.351 294.648 208.124C294.314 208.897 294.144 209.725 294.146 210.561V210.561ZM299.349 229.868C299.349 229.753 300.801 227.323 300.801 227.323C303.101 226.747 304.189 228.133 304.311 228.25C304.311 228.25 302.736 230.909 302.254 231.371C301.772 231.833 301.164 231.95 300.559 231.833C299.591 231.602 298.986 230.677 299.349 229.868V229.868Z" fill="#1B61E1"/>
</g>
<path d="M245.642 140.267H170.508C167.024 140.267 164.199 143.092 164.199 146.576V220.891C164.199 224.376 167.024 227.2 170.508 227.2H245.642C249.127 227.2 251.951 224.376 251.951 220.891V146.576C251.951 143.092 249.127 140.267 245.642 140.267Z" fill="black"/>
<g clip-path="url(#clip4_2_2)">
<path d="M199.415 205.9C204.077 205.9 207.86 202.2 207.86 197.642V189.383H199.415C194.753 189.383 190.97 193.083 190.97 197.642C190.97 202.2 194.753 205.9 199.415 205.9Z" fill="#0ACF83"/>
<path d="M190.97 181.125C190.97 176.566 194.753 172.867 199.415 172.867H207.86V189.383H199.415C194.753 189.383 190.97 185.684 190.97 181.125Z" fill="#A259FF"/>
<path d="M190.97 164.608C190.97 160.05 194.753 156.35 199.415 156.35H207.86V172.867H199.415C194.753 172.867 190.97 169.167 190.97 164.608Z" fill="#F24E1E"/>
<path d="M207.86 156.35H216.305C220.967 156.35 224.75 160.05 224.75 164.608C224.75 169.167 220.967 172.867 216.305 172.867H207.86V156.35Z" fill="#FF7262"/>
<path d="M224.75 181.125C224.75 185.684 220.967 189.383 216.305 189.383C211.643 189.383 207.86 185.684 207.86 181.125C207.86 176.566 211.643 172.867 216.305 172.867C220.967 172.867 224.75 176.566 224.75 181.125Z" fill="#1ABCFE"/>
</g>
<path d="M81.4433 174.4H6.30915C2.8247 174.4 0 177.225 0 180.709V255.024C0 258.509 2.8247 261.333 6.30915 261.333H81.4433C84.9277 261.333 87.7524 258.509 87.7524 255.024V180.709C87.7524 177.225 84.9277 174.4 81.4433 174.4Z" fill="black"/>
<path d="M28.95 189H57.05C63.0977 189 68 194.098 68 200.388V229.612C68 235.902 63.0977 241 57.05 241H28.95C22.9023 241 18 235.902 18 229.612V200.388C18 194.098 22.9023 189 28.95 189Z" fill="url(#paint0_linear_2_2)"/>
<path d="M34.0238 226.743L34.0285 226.744L32.319 229.824C31.6949 230.948 30.3129 231.333 29.232 230.684C28.1514 230.035 27.7809 228.598 28.4049 227.473L29.6643 225.205L29.7852 224.987C30.001 224.665 30.5336 224.108 31.599 224.213C31.599 224.213 34.1063 224.495 34.2877 225.851C34.2877 225.851 34.3123 226.297 34.0238 226.743V226.743ZM58.2705 218.878H52.9397C52.5766 218.852 52.4182 218.717 52.3557 218.639L52.3518 218.632L46.6453 208.353L46.6379 208.358L46.2957 207.847C45.7348 206.955 44.8441 209.237 44.8441 209.237C43.7807 211.779 44.9951 214.669 45.4184 215.543L53.3445 229.821C53.9684 230.944 55.3504 231.33 56.4315 230.681C57.5121 230.032 57.8826 228.594 57.2584 227.47L55.2766 223.9C55.2381 223.814 55.1713 223.579 55.5777 223.578H58.2705C59.5186 223.578 60.5303 222.526 60.5303 221.228C60.5303 219.93 59.5186 218.877 58.2705 218.877V218.878ZM47.9162 222.072C47.9162 222.072 48.2008 223.578 47.0998 223.578H27.393C26.1449 223.578 25.1332 222.526 25.1332 221.228C25.1332 219.93 26.1449 218.877 27.393 218.877H32.4594C33.2773 218.828 33.4711 218.337 33.4711 218.337L33.4758 218.34L40.0891 206.427L40.0871 206.426C40.2076 206.196 40.1072 205.979 40.0899 205.944L37.9057 202.01C37.2816 200.886 37.652 199.449 38.7328 198.8C39.8137 198.151 41.1957 198.536 41.8197 199.66L42.8326 201.484L43.8438 199.663C44.4678 198.539 45.8498 198.154 46.9307 198.803C48.0115 199.452 48.3818 200.889 47.7578 202.013L38.5551 218.59C38.5149 218.691 38.5025 218.85 38.802 218.877H44.3027L44.3039 218.933C44.3039 218.933 47.4832 218.985 47.9162 222.072Z" fill="white"/>
<path d="M361.928 46.9336H298.099C294.615 46.9336 291.79 49.7583 291.79 53.2427V116.358C291.79 119.842 294.615 122.667 298.099 122.667H361.928C365.412 122.667 368.237 119.842 368.237 116.358V53.2427C368.237 49.7583 365.412 46.9336 361.928 46.9336Z" fill="black"/>
<path d="M314.7 96.9L314.955 96.5445L326.985 73.7235L327.01 73.482L321.708 63.522C321.611 63.3399 321.459 63.1929 321.274 63.1018C321.089 63.0107 320.879 62.9802 320.676 63.0145C320.472 63.0489 320.285 63.1463 320.14 63.2931C319.995 63.4399 319.899 63.6286 319.867 63.8325L314.7 96.9Z" fill="#FFC24A"/>
<path d="M314.85 96.63L315.042 96.255L326.948 73.671L321.658 63.672C321.571 63.4981 321.43 63.3572 321.256 63.2703C321.082 63.1834 320.884 63.1552 320.693 63.19C320.502 63.2248 320.327 63.3207 320.194 63.4633C320.062 63.6059 319.979 63.7875 319.959 63.981L314.85 96.63Z" fill="#FFA712"/>
<path d="M330.876 81.015L334.824 76.965L330.874 69.4335C330.788 69.2714 330.658 69.1359 330.5 69.0415C330.343 68.947 330.162 68.8972 329.978 68.8972C329.794 68.8972 329.614 68.947 329.456 69.0415C329.298 69.1359 329.169 69.2714 329.082 69.4335L326.971 73.4565V73.8L330.876 81.015Z" fill="#F4BD62"/>
<path d="M330.805 80.85L334.644 76.92L330.805 69.6C330.743 69.4416 330.635 69.3047 330.496 69.2058C330.358 69.107 330.193 69.0504 330.023 69.043C329.853 69.0355 329.684 69.0775 329.537 69.1638C329.39 69.2502 329.271 69.3771 329.194 69.5295L327.073 73.623L327.01 73.8315L330.805 80.85Z" fill="#FFA50E"/>
<path d="M314.703 96.9015L314.819 96.7845L315.237 96.615L330.627 81.282L330.822 80.751L326.984 73.434L314.703 96.9015V96.9015Z" fill="#F6820C"/>
<path d="M331.368 104.634L345.3 96.8655L341.319 72.369C341.29 72.1963 341.215 72.0348 341.101 71.9023C340.986 71.7697 340.838 71.6712 340.671 71.6176C340.504 71.564 340.326 71.5573 340.156 71.5983C339.986 71.6393 339.83 71.7264 339.706 71.85L314.7 96.9L328.549 104.632C328.98 104.873 329.465 104.999 329.958 104.999C330.451 104.999 330.936 104.873 331.366 104.632" fill="#FDE068"/>
<path d="M345.172 96.801L341.224 72.489C341.218 72.3238 341.162 72.1644 341.064 72.031C340.967 71.8976 340.832 71.7961 340.676 71.7394C340.521 71.6827 340.352 71.6734 340.192 71.7125C340.031 71.7517 339.886 71.8377 339.774 71.9595L314.85 96.8535L328.546 104.503C328.974 104.742 329.455 104.867 329.944 104.867C330.433 104.867 330.914 104.742 331.341 104.503L345.172 96.801Z" fill="#FCCA3F"/>
<path d="M331.368 104.4C330.937 104.64 330.453 104.766 329.959 104.766C329.466 104.766 328.982 104.64 328.551 104.4L314.814 96.783L314.7 96.9L328.549 104.633C328.98 104.873 329.465 104.999 329.958 104.999C330.451 104.999 330.936 104.873 331.366 104.633L345.3 96.8655L345.265 96.6555L331.368 104.4Z" fill="#EEAB37"/>
<path d="M237.568 0H142.514C139.03 0 136.205 2.8247 136.205 6.30915V100.358C136.205 103.842 139.03 106.667 142.514 106.667H237.568C241.052 106.667 243.877 103.842 243.877 100.358V6.30915C243.877 2.8247 241.052 0 237.568 0Z" fill="black"/>
<path d="M197.332 22.0022C197.332 22.0022 210.653 29.8546 214.14 42.329C217.281 53.5972 214.765 58.9749 214.765 58.9749C216.372 60.7798 217.638 62.8778 218.498 65.1614C219.362 66.6286 219.87 68.2892 219.978 70.0022C220.086 71.7151 219.792 73.4296 219.119 75C219.119 75 218.905 70.4044 212.263 69.4521C206.175 68.5683 203.961 74.6796 192.335 74.3836C185.893 74.257 179.578 72.5075 173.942 69.2876C168.306 66.0677 163.52 61.4752 160 55.9105C165.681 59.1053 173.122 64.0655 182.39 63.3032C191.658 62.541 193.592 59.6046 193.592 59.6046C183.175 51.1049 173.955 41.1534 166.195 30.0357C173.48 36.3216 191.527 48.8314 191.107 48.5133C184.506 41.8625 178.466 34.644 173.054 26.9359C173.054 26.9359 200.13 49.8897 202.309 49.7439C203.205 47.8416 207.836 37.9941 197.329 22L197.332 22.0022Z" fill="url(#paint1_linear_2_2)"/>
<path d="M113.745 66.1333H42.3792C38.8948 66.1333 36.0701 68.958 36.0701 72.4425V143.024C36.0701 146.509 38.8948 149.333 42.3792 149.333H113.745C117.229 149.333 120.054 146.509 120.054 143.024V72.4425C120.054 68.958 117.229 66.1333 113.745 66.1333Z" fill="black"/>
<g clip-path="url(#clip5_2_2)">
<path d="M85.698 88.901L77.9118 84.44L69.7863 89.4163L77.6811 93.7167L85.698 88.901ZM89.4215 90.8219L81.3807 95.6442L90.494 100.838V114.559L78.2037 121.446L66.056 114.559V103.85L57.91 99.8608V119.244L77.9118 130.957L98.64 119.331V96.0726L89.4215 90.8219Z" fill="#2396F3"/>
</g>
<defs>
<linearGradient id="paint0_linear_2_2" x1="43" y1="189" x2="43" y2="241" gradientUnits="userSpaceOnUse">
<stop stop-color="#17C9FB"/>
<stop offset="1" stop-color="#1A74E8"/>
</linearGradient>
<linearGradient id="paint1_linear_2_2" x1="190.942" y1="43.2128" x2="189.738" y2="75.0239" gradientUnits="userSpaceOnUse">
<stop stop-color="#F88535"/>
<stop offset="1" stop-color="#FD2221"/>
</linearGradient>
<clipPath id="clip0_2_2">
<rect width="52.02" height="50.07" fill="white" transform="translate(320.32 321.6)"/>
</clipPath>
<clipPath id="clip1_2_2">
<rect width="34.47" height="34.14" fill="white" transform="translate(188.6 279.64)"/>
</clipPath>
<clipPath id="clip2_2_2">
<rect width="44.85" height="43.07" fill="white" transform="translate(68.02 306.69)"/>
</clipPath>
<clipPath id="clip3_2_2">
<rect width="45" height="43" fill="white" transform="translate(290 198)"/>
</clipPath>
<clipPath id="clip4_2_2">
<rect width="33.78" height="49.55" fill="white" transform="translate(190.97 156.35)"/>
</clipPath>
<clipPath id="clip5_2_2">
<rect width="40.73" height="46.59" fill="white" transform="translate(57.91 84.44)"/>
</clipPath>
</defs>
</svg>
